<?xml version="1.0" encoding="utf-8" standalone="no"?>
<!DOCTYPE svg PUBLIC "-//W3C//DTD SVG 1.1//EN"
  "http://www.w3.org/Graphics/SVG/1.1/DTD/svg11.dtd">
<svg height="288pt" version="1.1" viewBox="0 0 432 288" width="432pt" xmlns="http://www.w3.org/2000/svg" xmlns:xlink="http://www.w3.org/1999/xlink">
 <metadata>
  <rdf:RDF xmlns:cc="http://creativecommons.org/ns#" xmlns:dc="http://purl.org/dc/elements/1.1/" xmlns:rdf="http://www.w3.org/1999/02/22-rdf-syntax-ns#">
   <cc:Work>
    <dc:type rdf:resource="http://purl.org/dc/dcmitype/StillImage"/>
    <dc:date>2021-10-04T14:28:08.529820</dc:date>
    <dc:format>image/svg+xml</dc:format>
    <dc:creator>
     <cc:Agent>
      <dc:title>Matplotlib v3.4.2, https://matplotlib.org/</dc:title>
     </cc:Agent>
    </dc:creator>
   </cc:Work>
  </rdf:RDF>
 </metadata>
 <defs>
  <style type="text/css">*{stroke-linecap:butt;stroke-linejoin:round;}</style>
 </defs>
 <g id="figure_1">
  <g id="patch_1">
   <path d="M 0 288 
L 432 288 
L 432 0 
L 0 0 
z
" style="fill:none;"/>
  </g>
  <g id="axes_1">
   <g id="patch_2">
    <path d="M 91.8 215.35625 
L 409.825 215.35625 
L 409.825 14.090106 
L 91.8 14.090106 
z
" style="fill:#ffffff;"/>
   </g>
   <g id="matplotlib.axis_1">
    <g id="xtick_1">
     <g id="line2d_1">
      <defs>
       <path d="M 0 0 
L 0 9 
" id="m2efd8c616c" style="stroke:#262626;stroke-width:1.875;"/>
      </defs>
      <g>
       <use style="fill:#262626;stroke:#262626;stroke-width:1.875;" x="91.8" xlink:href="#m2efd8c616c" y="225.35625"/>
      </g>
     </g>
     <g id="text_1">
      <!-- 0.1 -->
      <g style="fill:#262626;" transform="translate(80.3325 249.666641)scale(0.165 -0.165)">
       <defs>
        <path d="M 266 2259 
Q 266 3072 433 3567 
Q 600 4063 929 4331 
Q 1259 4600 1759 4600 
Q 2128 4600 2406 4451 
Q 2684 4303 2865 4023 
Q 3047 3744 3150 3342 
Q 3253 2941 3253 2259 
Q 3253 1453 3087 958 
Q 2922 463 2592 192 
Q 2263 -78 1759 -78 
Q 1097 -78 719 397 
Q 266 969 266 2259 
z
M 844 2259 
Q 844 1131 1108 757 
Q 1372 384 1759 384 
Q 2147 384 2411 759 
Q 2675 1134 2675 2259 
Q 2675 3391 2411 3762 
Q 2147 4134 1753 4134 
Q 1366 4134 1134 3806 
Q 844 3388 844 2259 
z
" id="ArialMT-30" transform="scale(0.015625)"/>
        <path d="M 581 0 
L 581 641 
L 1222 641 
L 1222 0 
L 581 0 
z
" id="ArialMT-2e" transform="scale(0.015625)"/>
        <path d="M 2384 0 
L 1822 0 
L 1822 3584 
Q 1619 3391 1289 3197 
Q 959 3003 697 2906 
L 697 3450 
Q 1169 3672 1522 3987 
Q 1875 4303 2022 4600 
L 2384 4600 
L 2384 0 
z
" id="ArialMT-31" transform="scale(0.015625)"/>
       </defs>
       <use xlink:href="#ArialMT-30"/>
       <use x="55.615234" xlink:href="#ArialMT-2e"/>
       <use x="83.398438" xlink:href="#ArialMT-31"/>
      </g>
     </g>
    </g>
    <g id="xtick_2">
     <g id="line2d_2">
      <g>
       <use style="fill:#262626;stroke:#262626;stroke-width:1.875;" x="155.405" xlink:href="#m2efd8c616c" y="225.35625"/>
      </g>
     </g>
     <g id="text_2">
      <!-- 0.2 -->
      <g style="fill:#262626;" transform="translate(143.9375 249.666641)scale(0.165 -0.165)">
       <defs>
        <path d="M 3222 541 
L 3222 0 
L 194 0 
Q 188 203 259 391 
Q 375 700 629 1000 
Q 884 1300 1366 1694 
Q 2113 2306 2375 2664 
Q 2638 3022 2638 3341 
Q 2638 3675 2398 3904 
Q 2159 4134 1775 4134 
Q 1369 4134 1125 3890 
Q 881 3647 878 3216 
L 300 3275 
Q 359 3922 746 4261 
Q 1134 4600 1788 4600 
Q 2447 4600 2831 4234 
Q 3216 3869 3216 3328 
Q 3216 3053 3103 2787 
Q 2991 2522 2730 2228 
Q 2469 1934 1863 1422 
Q 1356 997 1212 845 
Q 1069 694 975 541 
L 3222 541 
z
" id="ArialMT-32" transform="scale(0.015625)"/>
       </defs>
       <use xlink:href="#ArialMT-30"/>
       <use x="55.615234" xlink:href="#ArialMT-2e"/>
       <use x="83.398438" xlink:href="#ArialMT-32"/>
      </g>
     </g>
    </g>
    <g id="xtick_3">
     <g id="line2d_3">
      <g>
       <use style="fill:#262626;stroke:#262626;stroke-width:1.875;" x="219.01" xlink:href="#m2efd8c616c" y="225.35625"/>
      </g>
     </g>
     <g id="text_3">
      <!-- 0.3 -->
      <g style="fill:#262626;" transform="translate(207.5425 249.666641)scale(0.165 -0.165)">
       <defs>
        <path d="M 269 1209 
L 831 1284 
Q 928 806 1161 595 
Q 1394 384 1728 384 
Q 2125 384 2398 659 
Q 2672 934 2672 1341 
Q 2672 1728 2419 1979 
Q 2166 2231 1775 2231 
Q 1616 2231 1378 2169 
L 1441 2663 
Q 1497 2656 1531 2656 
Q 1891 2656 2178 2843 
Q 2466 3031 2466 3422 
Q 2466 3731 2256 3934 
Q 2047 4138 1716 4138 
Q 1388 4138 1169 3931 
Q 950 3725 888 3313 
L 325 3413 
Q 428 3978 793 4289 
Q 1159 4600 1703 4600 
Q 2078 4600 2393 4439 
Q 2709 4278 2876 4000 
Q 3044 3722 3044 3409 
Q 3044 3113 2884 2869 
Q 2725 2625 2413 2481 
Q 2819 2388 3044 2092 
Q 3269 1797 3269 1353 
Q 3269 753 2831 336 
Q 2394 -81 1725 -81 
Q 1122 -81 723 278 
Q 325 638 269 1209 
z
" id="ArialMT-33" transform="scale(0.015625)"/>
       </defs>
       <use xlink:href="#ArialMT-30"/>
       <use x="55.615234" xlink:href="#ArialMT-2e"/>
       <use x="83.398438" xlink:href="#ArialMT-33"/>
      </g>
     </g>
    </g>
    <g id="xtick_4">
     <g id="line2d_4">
      <g>
       <use style="fill:#262626;stroke:#262626;stroke-width:1.875;" x="282.615" xlink:href="#m2efd8c616c" y="225.35625"/>
      </g>
     </g>
     <g id="text_4">
      <!-- 0.4 -->
      <g style="fill:#262626;" transform="translate(271.1475 249.666641)scale(0.165 -0.165)">
       <defs>
        <path d="M 2069 0 
L 2069 1097 
L 81 1097 
L 81 1613 
L 2172 4581 
L 2631 4581 
L 2631 1613 
L 3250 1613 
L 3250 1097 
L 2631 1097 
L 2631 0 
L 2069 0 
z
M 2069 1613 
L 2069 3678 
L 634 1613 
L 2069 1613 
z
" id="ArialMT-34" transform="scale(0.015625)"/>
       </defs>
       <use xlink:href="#ArialMT-30"/>
       <use x="55.615234" xlink:href="#ArialMT-2e"/>
       <use x="83.398438" xlink:href="#ArialMT-34"/>
      </g>
     </g>
    </g>
    <g id="xtick_5">
     <g id="line2d_5">
      <g>
       <use style="fill:#262626;stroke:#262626;stroke-width:1.875;" x="346.22" xlink:href="#m2efd8c616c" y="225.35625"/>
      </g>
     </g>
     <g id="text_5">
      <!-- 0.5 -->
      <g style="fill:#262626;" transform="translate(334.7525 249.666641)scale(0.165 -0.165)">
       <defs>
        <path d="M 266 1200 
L 856 1250 
Q 922 819 1161 601 
Q 1400 384 1738 384 
Q 2144 384 2425 690 
Q 2706 997 2706 1503 
Q 2706 1984 2436 2262 
Q 2166 2541 1728 2541 
Q 1456 2541 1237 2417 
Q 1019 2294 894 2097 
L 366 2166 
L 809 4519 
L 3088 4519 
L 3088 3981 
L 1259 3981 
L 1013 2750 
Q 1425 3038 1878 3038 
Q 2478 3038 2890 2622 
Q 3303 2206 3303 1553 
Q 3303 931 2941 478 
Q 2500 -78 1738 -78 
Q 1113 -78 717 272 
Q 322 622 266 1200 
z
" id="ArialMT-35" transform="scale(0.015625)"/>
       </defs>
       <use xlink:href="#ArialMT-30"/>
       <use x="55.615234" xlink:href="#ArialMT-2e"/>
       <use x="83.398438" xlink:href="#ArialMT-35"/>
      </g>
     </g>
    </g>
    <g id="xtick_6">
     <g id="line2d_6">
      <g>
       <use style="fill:#262626;stroke:#262626;stroke-width:1.875;" x="409.825" xlink:href="#m2efd8c616c" y="225.35625"/>
      </g>
     </g>
     <g id="text_6">
      <!-- 0.6 -->
      <g style="fill:#262626;" transform="translate(398.3575 249.666641)scale(0.165 -0.165)">
       <defs>
        <path d="M 3184 3459 
L 2625 3416 
Q 2550 3747 2413 3897 
Q 2184 4138 1850 4138 
Q 1581 4138 1378 3988 
Q 1113 3794 959 3422 
Q 806 3050 800 2363 
Q 1003 2672 1297 2822 
Q 1591 2972 1913 2972 
Q 2475 2972 2870 2558 
Q 3266 2144 3266 1488 
Q 3266 1056 3080 686 
Q 2894 316 2569 119 
Q 2244 -78 1831 -78 
Q 1128 -78 684 439 
Q 241 956 241 2144 
Q 241 3472 731 4075 
Q 1159 4600 1884 4600 
Q 2425 4600 2770 4297 
Q 3116 3994 3184 3459 
z
M 888 1484 
Q 888 1194 1011 928 
Q 1134 663 1356 523 
Q 1578 384 1822 384 
Q 2178 384 2434 671 
Q 2691 959 2691 1453 
Q 2691 1928 2437 2201 
Q 2184 2475 1800 2475 
Q 1419 2475 1153 2201 
Q 888 1928 888 1484 
z
" id="ArialMT-36" transform="scale(0.015625)"/>
       </defs>
       <use xlink:href="#ArialMT-30"/>
       <use x="55.615234" xlink:href="#ArialMT-2e"/>
       <use x="83.398438" xlink:href="#ArialMT-36"/>
      </g>
     </g>
    </g>
    <g id="text_7">
     <!-- $\Delta G$, oxidized - reduced -->
     <g style="fill:#262626;" transform="translate(159.1025 269.830078)scale(0.18 -0.18)">
      <defs>
       <path d="M 2188 4044 
L 906 525 
L 3472 525 
L 2188 4044 
z
M 50 0 
L 1831 4666 
L 2547 4666 
L 4325 0 
L 50 0 
z
" id="DejaVuSans-394" transform="scale(0.015625)"/>
       <path d="M 3494 697 
L 3738 1919 
L 2700 1919 
L 2797 2438 
L 4453 2438 
L 4050 384 
Q 3634 156 3143 32 
Q 2653 -91 2156 -91 
Q 1278 -91 783 396 
Q 288 884 288 1753 
Q 288 2475 589 3126 
Q 891 3778 1422 4213 
Q 1756 4484 2153 4617 
Q 2550 4750 3034 4750 
Q 3472 4750 3873 4639 
Q 4275 4528 4641 4306 
L 4513 3634 
Q 4231 3928 3853 4083 
Q 3475 4238 3047 4238 
Q 2550 4238 2172 4048 
Q 1794 3859 1497 3463 
Q 1244 3125 1098 2667 
Q 953 2209 953 1734 
Q 953 1081 1287 751 
Q 1622 422 2284 422 
Q 2616 422 2925 492 
Q 3234 563 3494 697 
z
" id="DejaVuSans-Oblique-47" transform="scale(0.015625)"/>
       <path d="M 569 0 
L 569 641 
L 1209 641 
L 1209 0 
Q 1209 -353 1084 -570 
Q 959 -788 688 -906 
L 531 -666 
Q 709 -588 793 -436 
Q 878 -284 888 0 
L 569 0 
z
" id="ArialMT-2c" transform="scale(0.015625)"/>
       <path id="ArialMT-20" transform="scale(0.015625)"/>
       <path d="M 213 1659 
Q 213 2581 725 3025 
Q 1153 3394 1769 3394 
Q 2453 3394 2887 2945 
Q 3322 2497 3322 1706 
Q 3322 1066 3130 698 
Q 2938 331 2570 128 
Q 2203 -75 1769 -75 
Q 1072 -75 642 372 
Q 213 819 213 1659 
z
M 791 1659 
Q 791 1022 1069 705 
Q 1347 388 1769 388 
Q 2188 388 2466 706 
Q 2744 1025 2744 1678 
Q 2744 2294 2464 2611 
Q 2184 2928 1769 2928 
Q 1347 2928 1069 2612 
Q 791 2297 791 1659 
z
" id="ArialMT-6f" transform="scale(0.015625)"/>
       <path d="M 47 0 
L 1259 1725 
L 138 3319 
L 841 3319 
L 1350 2541 
Q 1494 2319 1581 2169 
Q 1719 2375 1834 2534 
L 2394 3319 
L 3066 3319 
L 1919 1756 
L 3153 0 
L 2463 0 
L 1781 1031 
L 1600 1309 
L 728 0 
L 47 0 
z
" id="ArialMT-78" transform="scale(0.015625)"/>
       <path d="M 425 3934 
L 425 4581 
L 988 4581 
L 988 3934 
L 425 3934 
z
M 425 0 
L 425 3319 
L 988 3319 
L 988 0 
L 425 0 
z
" id="ArialMT-69" transform="scale(0.015625)"/>
       <path d="M 2575 0 
L 2575 419 
Q 2259 -75 1647 -75 
Q 1250 -75 917 144 
Q 584 363 401 755 
Q 219 1147 219 1656 
Q 219 2153 384 2558 
Q 550 2963 881 3178 
Q 1213 3394 1622 3394 
Q 1922 3394 2156 3267 
Q 2391 3141 2538 2938 
L 2538 4581 
L 3097 4581 
L 3097 0 
L 2575 0 
z
M 797 1656 
Q 797 1019 1065 703 
Q 1334 388 1700 388 
Q 2069 388 2326 689 
Q 2584 991 2584 1609 
Q 2584 2291 2321 2609 
Q 2059 2928 1675 2928 
Q 1300 2928 1048 2622 
Q 797 2316 797 1656 
z
" id="ArialMT-64" transform="scale(0.015625)"/>
       <path d="M 125 0 
L 125 456 
L 2238 2881 
Q 1878 2863 1603 2863 
L 250 2863 
L 250 3319 
L 2963 3319 
L 2963 2947 
L 1166 841 
L 819 456 
Q 1197 484 1528 484 
L 3063 484 
L 3063 0 
L 125 0 
z
" id="ArialMT-7a" transform="scale(0.015625)"/>
       <path d="M 2694 1069 
L 3275 997 
Q 3138 488 2766 206 
Q 2394 -75 1816 -75 
Q 1088 -75 661 373 
Q 234 822 234 1631 
Q 234 2469 665 2931 
Q 1097 3394 1784 3394 
Q 2450 3394 2872 2941 
Q 3294 2488 3294 1666 
Q 3294 1616 3291 1516 
L 816 1516 
Q 847 969 1125 678 
Q 1403 388 1819 388 
Q 2128 388 2347 550 
Q 2566 713 2694 1069 
z
M 847 1978 
L 2700 1978 
Q 2663 2397 2488 2606 
Q 2219 2931 1791 2931 
Q 1403 2931 1139 2672 
Q 875 2413 847 1978 
z
" id="ArialMT-65" transform="scale(0.015625)"/>
       <path d="M 203 1375 
L 203 1941 
L 1931 1941 
L 1931 1375 
L 203 1375 
z
" id="ArialMT-2d" transform="scale(0.015625)"/>
       <path d="M 416 0 
L 416 3319 
L 922 3319 
L 922 2816 
Q 1116 3169 1280 3281 
Q 1444 3394 1641 3394 
Q 1925 3394 2219 3213 
L 2025 2691 
Q 1819 2813 1613 2813 
Q 1428 2813 1281 2702 
Q 1134 2591 1072 2394 
Q 978 2094 978 1738 
L 978 0 
L 416 0 
z
" id="ArialMT-72" transform="scale(0.015625)"/>
       <path d="M 2597 0 
L 2597 488 
Q 2209 -75 1544 -75 
Q 1250 -75 995 37 
Q 741 150 617 320 
Q 494 491 444 738 
Q 409 903 409 1263 
L 409 3319 
L 972 3319 
L 972 1478 
Q 972 1038 1006 884 
Q 1059 663 1231 536 
Q 1403 409 1656 409 
Q 1909 409 2131 539 
Q 2353 669 2445 892 
Q 2538 1116 2538 1541 
L 2538 3319 
L 3100 3319 
L 3100 0 
L 2597 0 
z
" id="ArialMT-75" transform="scale(0.015625)"/>
       <path d="M 2588 1216 
L 3141 1144 
Q 3050 572 2676 248 
Q 2303 -75 1759 -75 
Q 1078 -75 664 370 
Q 250 816 250 1647 
Q 250 2184 428 2587 
Q 606 2991 970 3192 
Q 1334 3394 1763 3394 
Q 2303 3394 2647 3120 
Q 2991 2847 3088 2344 
L 2541 2259 
Q 2463 2594 2264 2762 
Q 2066 2931 1784 2931 
Q 1359 2931 1093 2626 
Q 828 2322 828 1663 
Q 828 994 1084 691 
Q 1341 388 1753 388 
Q 2084 388 2306 591 
Q 2528 794 2588 1216 
z
" id="ArialMT-63" transform="scale(0.015625)"/>
      </defs>
      <use transform="translate(0 0.78125)" xlink:href="#DejaVuSans-394"/>
      <use transform="translate(68.408203 0.78125)" xlink:href="#DejaVuSans-Oblique-47"/>
      <use transform="translate(145.898438 0.78125)" xlink:href="#ArialMT-2c"/>
      <use transform="translate(173.681641 0.78125)" xlink:href="#ArialMT-20"/>
      <use transform="translate(201.464844 0.78125)" xlink:href="#ArialMT-6f"/>
      <use transform="translate(257.080078 0.78125)" xlink:href="#ArialMT-78"/>
      <use transform="translate(307.080078 0.78125)" xlink:href="#ArialMT-69"/>
      <use transform="translate(329.296875 0.78125)" xlink:href="#ArialMT-64"/>
      <use transform="translate(384.912109 0.78125)" xlink:href="#ArialMT-69"/>
      <use transform="translate(407.128906 0.78125)" xlink:href="#ArialMT-7a"/>
      <use transform="translate(457.128906 0.78125)" xlink:href="#ArialMT-65"/>
      <use transform="translate(512.744141 0.78125)" xlink:href="#ArialMT-64"/>
      <use transform="translate(568.359375 0.78125)" xlink:href="#ArialMT-20"/>
      <use transform="translate(596.142578 0.78125)" xlink:href="#ArialMT-2d"/>
      <use transform="translate(629.443359 0.78125)" xlink:href="#ArialMT-20"/>
      <use transform="translate(657.226562 0.78125)" xlink:href="#ArialMT-72"/>
      <use transform="translate(690.527344 0.78125)" xlink:href="#ArialMT-65"/>
      <use transform="translate(746.142578 0.78125)" xlink:href="#ArialMT-64"/>
      <use transform="translate(801.757812 0.78125)" xlink:href="#ArialMT-75"/>
      <use transform="translate(857.373047 0.78125)" xlink:href="#ArialMT-63"/>
      <use transform="translate(907.373047 0.78125)" xlink:href="#ArialMT-65"/>
      <use transform="translate(962.988281 0.78125)" xlink:href="#ArialMT-64"/>
     </g>
    </g>
   </g>
   <g id="matplotlib.axis_2">
    <g id="ytick_1">
     <g id="line2d_7">
      <defs>
       <path d="M 0 0 
L -9 0 
" id="mf348130938" style="stroke:#262626;stroke-width:1.875;"/>
      </defs>
      <g>
       <use style="fill:#262626;stroke:#262626;stroke-width:1.875;" x="81.8" xlink:href="#mf348130938" y="215.35625"/>
      </g>
     </g>
     <g id="text_8">
      <!-- 0 -->
      <g style="fill:#262626;" transform="translate(60.124453 221.261445)scale(0.165 -0.165)">
       <use xlink:href="#ArialMT-30"/>
      </g>
     </g>
    </g>
    <g id="ytick_2">
     <g id="line2d_8">
      <g>
       <use style="fill:#262626;stroke:#262626;stroke-width:1.875;" x="81.8" xlink:href="#mf348130938" y="175.604686"/>
      </g>
     </g>
     <g id="text_9">
      <!-- 1000 -->
      <g style="fill:#262626;" transform="translate(32.597812 181.509881)scale(0.165 -0.165)">
       <use xlink:href="#ArialMT-31"/>
       <use x="55.615234" xlink:href="#ArialMT-30"/>
       <use x="111.230469" xlink:href="#ArialMT-30"/>
       <use x="166.845703" xlink:href="#ArialMT-30"/>
      </g>
     </g>
    </g>
    <g id="ytick_3">
     <g id="line2d_9">
      <g>
       <use style="fill:#262626;stroke:#262626;stroke-width:1.875;" x="81.8" xlink:href="#mf348130938" y="135.853122"/>
      </g>
     </g>
     <g id="text_10">
      <!-- 2000 -->
      <g style="fill:#262626;" transform="translate(32.597812 141.758317)scale(0.165 -0.165)">
       <use xlink:href="#ArialMT-32"/>
       <use x="55.615234" xlink:href="#ArialMT-30"/>
       <use x="111.230469" xlink:href="#ArialMT-30"/>
       <use x="166.845703" xlink:href="#ArialMT-30"/>
      </g>
     </g>
    </g>
    <g id="ytick_4">
     <g id="line2d_10">
      <g>
       <use style="fill:#262626;stroke:#262626;stroke-width:1.875;" x="81.8" xlink:href="#mf348130938" y="96.101558"/>
      </g>
     </g>
     <g id="text_11">
      <!-- 3000 -->
      <g style="fill:#262626;" transform="translate(32.597812 102.006753)scale(0.165 -0.165)">
       <use xlink:href="#ArialMT-33"/>
       <use x="55.615234" xlink:href="#ArialMT-30"/>
       <use x="111.230469" xlink:href="#ArialMT-30"/>
       <use x="166.845703" xlink:href="#ArialMT-30"/>
      </g>
     </g>
    </g>
    <g id="ytick_5">
     <g id="line2d_11">
      <g>
       <use style="fill:#262626;stroke:#262626;stroke-width:1.875;" x="81.8" xlink:href="#mf348130938" y="56.349994"/>
      </g>
     </g>
     <g id="text_12">
      <!-- 4000 -->
      <g style="fill:#262626;" transform="translate(32.597812 62.255189)scale(0.165 -0.165)">
       <use xlink:href="#ArialMT-34"/>
       <use x="55.615234" xlink:href="#ArialMT-30"/>
       <use x="111.230469" xlink:href="#ArialMT-30"/>
       <use x="166.845703" xlink:href="#ArialMT-30"/>
      </g>
     </g>
    </g>
    <g id="ytick_6">
     <g id="line2d_12">
      <g>
       <use style="fill:#262626;stroke:#262626;stroke-width:1.875;" x="81.8" xlink:href="#mf348130938" y="16.59843"/>
      </g>
     </g>
     <g id="text_13">
      <!-- 5000 -->
      <g style="fill:#262626;" transform="translate(32.597812 22.503625)scale(0.165 -0.165)">
       <use xlink:href="#ArialMT-35"/>
       <use x="55.615234" xlink:href="#ArialMT-30"/>
       <use x="111.230469" xlink:href="#ArialMT-30"/>
       <use x="166.845703" xlink:href="#ArialMT-30"/>
      </g>
     </g>
    </g>
    <g id="text_14">
     <!-- Frequency -->
     <g style="fill:#262626;" transform="translate(24.809375 157.241147)rotate(-90)scale(0.18 -0.18)">
      <defs>
       <path d="M 525 0 
L 525 4581 
L 3616 4581 
L 3616 4041 
L 1131 4041 
L 1131 2622 
L 3281 2622 
L 3281 2081 
L 1131 2081 
L 1131 0 
L 525 0 
z
" id="ArialMT-46" transform="scale(0.015625)"/>
       <path d="M 2538 -1272 
L 2538 353 
Q 2406 169 2170 47 
Q 1934 -75 1669 -75 
Q 1078 -75 651 397 
Q 225 869 225 1691 
Q 225 2191 398 2587 
Q 572 2984 901 3189 
Q 1231 3394 1625 3394 
Q 2241 3394 2594 2875 
L 2594 3319 
L 3100 3319 
L 3100 -1272 
L 2538 -1272 
z
M 803 1669 
Q 803 1028 1072 708 
Q 1341 388 1716 388 
Q 2075 388 2334 692 
Q 2594 997 2594 1619 
Q 2594 2281 2320 2615 
Q 2047 2950 1678 2950 
Q 1313 2950 1058 2639 
Q 803 2328 803 1669 
z
" id="ArialMT-71" transform="scale(0.015625)"/>
       <path d="M 422 0 
L 422 3319 
L 928 3319 
L 928 2847 
Q 1294 3394 1984 3394 
Q 2284 3394 2536 3286 
Q 2788 3178 2913 3003 
Q 3038 2828 3088 2588 
Q 3119 2431 3119 2041 
L 3119 0 
L 2556 0 
L 2556 2019 
Q 2556 2363 2490 2533 
Q 2425 2703 2258 2804 
Q 2091 2906 1866 2906 
Q 1506 2906 1245 2678 
Q 984 2450 984 1813 
L 984 0 
L 422 0 
z
" id="ArialMT-6e" transform="scale(0.015625)"/>
       <path d="M 397 -1278 
L 334 -750 
Q 519 -800 656 -800 
Q 844 -800 956 -737 
Q 1069 -675 1141 -563 
Q 1194 -478 1313 -144 
Q 1328 -97 1363 -6 
L 103 3319 
L 709 3319 
L 1400 1397 
Q 1534 1031 1641 628 
Q 1738 1016 1872 1384 
L 2581 3319 
L 3144 3319 
L 1881 -56 
Q 1678 -603 1566 -809 
Q 1416 -1088 1222 -1217 
Q 1028 -1347 759 -1347 
Q 597 -1347 397 -1278 
z
" id="ArialMT-79" transform="scale(0.015625)"/>
      </defs>
      <use xlink:href="#ArialMT-46"/>
      <use x="61.083984" xlink:href="#ArialMT-72"/>
      <use x="94.384766" xlink:href="#ArialMT-65"/>
      <use x="150" xlink:href="#ArialMT-71"/>
      <use x="205.615234" xlink:href="#ArialMT-75"/>
      <use x="261.230469" xlink:href="#ArialMT-65"/>
      <use x="316.845703" xlink:href="#ArialMT-6e"/>
      <use x="372.460938" xlink:href="#ArialMT-63"/>
      <use x="422.460938" xlink:href="#ArialMT-79"/>
     </g>
    </g>
   </g>
   <g id="patch_3">
    <path clip-path="url(#pec2faab57f)" d="M 110.154495 215.35625 
L 116.043567 215.35625 
L 116.043567 214.998486 
L 110.154495 214.998486 
z
" style="fill:#4c72b0;stroke:#ffffff;stroke-linejoin:miter;stroke-width:1.5;"/>
   </g>
   <g id="patch_4">
    <path clip-path="url(#pec2faab57f)" d="M 116.043567 215.35625 
L 121.93264 215.35625 
L 121.93264 213.925194 
L 116.043567 213.925194 
z
" style="fill:#4c72b0;stroke:#ffffff;stroke-linejoin:miter;stroke-width:1.5;"/>
   </g>
   <g id="patch_5">
    <path clip-path="url(#pec2faab57f)" d="M 121.93264 215.35625 
L 127.821712 215.35625 
L 127.821712 213.805939 
L 121.93264 213.805939 
z
" style="fill:#4c72b0;stroke:#ffffff;stroke-linejoin:miter;stroke-width:1.5;"/>
   </g>
   <g id="patch_6">
    <path clip-path="url(#pec2faab57f)" d="M 127.821712 215.35625 
L 133.710785 215.35625 
L 133.710785 207.843204 
L 127.821712 207.843204 
z
" style="fill:#4c72b0;stroke:#ffffff;stroke-linejoin:miter;stroke-width:1.5;"/>
   </g>
   <g id="patch_7">
    <path clip-path="url(#pec2faab57f)" d="M 133.710785 215.35625 
L 139.599857 215.35625 
L 139.599857 190.94879 
L 133.710785 190.94879 
z
" style="fill:#4c72b0;stroke:#ffffff;stroke-linejoin:miter;stroke-width:1.5;"/>
   </g>
   <g id="patch_8">
    <path clip-path="url(#pec2faab57f)" d="M 139.599857 215.35625 
L 145.48893 215.35625 
L 145.48893 156.64319 
L 139.599857 156.64319 
z
" style="fill:#4c72b0;stroke:#ffffff;stroke-linejoin:miter;stroke-width:1.5;"/>
   </g>
   <g id="patch_9">
    <path clip-path="url(#pec2faab57f)" d="M 145.48893 215.35625 
L 151.378002 215.35625 
L 151.378002 158.988532 
L 145.48893 158.988532 
z
" style="fill:#4c72b0;stroke:#ffffff;stroke-linejoin:miter;stroke-width:1.5;"/>
   </g>
   <g id="patch_10">
    <path clip-path="url(#pec2faab57f)" d="M 151.378002 215.35625 
L 157.267075 215.35625 
L 157.267075 152.707785 
L 151.378002 152.707785 
z
" style="fill:#4c72b0;stroke:#ffffff;stroke-linejoin:miter;stroke-width:1.5;"/>
   </g>
   <g id="patch_11">
    <path clip-path="url(#pec2faab57f)" d="M 157.267075 215.35625 
L 163.156147 215.35625 
L 163.156147 163.798471 
L 157.267075 163.798471 
z
" style="fill:#4c72b0;stroke:#ffffff;stroke-linejoin:miter;stroke-width:1.5;"/>
   </g>
   <g id="patch_12">
    <path clip-path="url(#pec2faab57f)" d="M 163.156147 215.35625 
L 169.045219 215.35625 
L 169.045219 156.523935 
L 163.156147 156.523935 
z
" style="fill:#4c72b0;stroke:#ffffff;stroke-linejoin:miter;stroke-width:1.5;"/>
   </g>
   <g id="patch_13">
    <path clip-path="url(#pec2faab57f)" d="M 169.045219 215.35625 
L 174.934292 215.35625 
L 174.934292 117.328893 
L 169.045219 117.328893 
z
" style="fill:#4c72b0;stroke:#ffffff;stroke-linejoin:miter;stroke-width:1.5;"/>
   </g>
   <g id="patch_14">
    <path clip-path="url(#pec2faab57f)" d="M 174.934292 215.35625 
L 180.823364 215.35625 
L 180.823364 101.22951 
L 174.934292 101.22951 
z
" style="fill:#4c72b0;stroke:#ffffff;stroke-linejoin:miter;stroke-width:1.5;"/>
   </g>
   <g id="patch_15">
    <path clip-path="url(#pec2faab57f)" d="M 180.823364 215.35625 
L 186.712437 215.35625 
L 186.712437 78.37236 
L 180.823364 78.37236 
z
" style="fill:#4c72b0;stroke:#ffffff;stroke-linejoin:miter;stroke-width:1.5;"/>
   </g>
   <g id="patch_16">
    <path clip-path="url(#pec2faab57f)" d="M 186.712437 215.35625 
L 192.601509 215.35625 
L 192.601509 23.674208 
L 186.712437 23.674208 
z
" style="fill:#4c72b0;stroke:#ffffff;stroke-linejoin:miter;stroke-width:1.5;"/>
   </g>
   <g id="patch_17">
    <path clip-path="url(#pec2faab57f)" d="M 192.601509 215.35625 
L 198.490582 215.35625 
L 198.490582 61.08043 
L 192.601509 61.08043 
z
" style="fill:#4c72b0;stroke:#ffffff;stroke-linejoin:miter;stroke-width:1.5;"/>
   </g>
   <g id="patch_18">
    <path clip-path="url(#pec2faab57f)" d="M 198.490582 215.35625 
L 204.379654 215.35625 
L 204.379654 80.439442 
L 198.490582 80.439442 
z
" style="fill:#4c72b0;stroke:#ffffff;stroke-linejoin:miter;stroke-width:1.5;"/>
   </g>
   <g id="patch_19">
    <path clip-path="url(#pec2faab57f)" d="M 204.379654 215.35625 
L 210.268727 215.35625 
L 210.268727 97.731372 
L 204.379654 97.731372 
z
" style="fill:#4c72b0;stroke:#ffffff;stroke-linejoin:miter;stroke-width:1.5;"/>
   </g>
   <g id="patch_20">
    <path clip-path="url(#pec2faab57f)" d="M 210.268727 215.35625 
L 216.157799 215.35625 
L 216.157799 112.598457 
L 210.268727 112.598457 
z
" style="fill:#4c72b0;stroke:#ffffff;stroke-linejoin:miter;stroke-width:1.5;"/>
   </g>
   <g id="patch_21">
    <path clip-path="url(#pec2faab57f)" d="M 216.157799 215.35625 
L 222.046872 215.35625 
L 222.046872 126.789765 
L 216.157799 126.789765 
z
" style="fill:#4c72b0;stroke:#ffffff;stroke-linejoin:miter;stroke-width:1.5;"/>
   </g>
   <g id="patch_22">
    <path clip-path="url(#pec2faab57f)" d="M 222.046872 215.35625 
L 227.935944 215.35625 
L 227.935944 134.819581 
L 222.046872 134.819581 
z
" style="fill:#4c72b0;stroke:#ffffff;stroke-linejoin:miter;stroke-width:1.5;"/>
   </g>
   <g id="patch_23">
    <path clip-path="url(#pec2faab57f)" d="M 227.935944 215.35625 
L 233.825017 215.35625 
L 233.825017 150.441946 
L 227.935944 150.441946 
z
" style="fill:#4c72b0;stroke:#ffffff;stroke-linejoin:miter;stroke-width:1.5;"/>
   </g>
   <g id="patch_24">
    <path clip-path="url(#pec2faab57f)" d="M 233.825017 215.35625 
L 239.714089 215.35625 
L 239.714089 163.480459 
L 233.825017 163.480459 
z
" style="fill:#4c72b0;stroke:#ffffff;stroke-linejoin:miter;stroke-width:1.5;"/>
   </g>
   <g id="patch_25">
    <path clip-path="url(#pec2faab57f)" d="M 239.714089 215.35625 
L 245.603161 215.35625 
L 245.603161 163.877975 
L 239.714089 163.877975 
z
" style="fill:#4c72b0;stroke:#ffffff;stroke-linejoin:miter;stroke-width:1.5;"/>
   </g>
   <g id="patch_26">
    <path clip-path="url(#pec2faab57f)" d="M 245.603161 215.35625 
L 251.492234 215.35625 
L 251.492234 169.085429 
L 245.603161 169.085429 
z
" style="fill:#4c72b0;stroke:#ffffff;stroke-linejoin:miter;stroke-width:1.5;"/>
   </g>
   <g id="patch_27">
    <path clip-path="url(#pec2faab57f)" d="M 251.492234 215.35625 
L 257.381306 215.35625 
L 257.381306 178.427047 
L 251.492234 178.427047 
z
" style="fill:#4c72b0;stroke:#ffffff;stroke-linejoin:miter;stroke-width:1.5;"/>
   </g>
   <g id="patch_28">
    <path clip-path="url(#pec2faab57f)" d="M 257.381306 215.35625 
L 263.270379 215.35625 
L 263.270379 187.530155 
L 257.381306 187.530155 
z
" style="fill:#4c72b0;stroke:#ffffff;stroke-linejoin:miter;stroke-width:1.5;"/>
   </g>
   <g id="patch_29">
    <path clip-path="url(#pec2faab57f)" d="M 263.270379 215.35625 
L 269.159451 215.35625 
L 269.159451 194.089163 
L 263.270379 194.089163 
z
" style="fill:#4c72b0;stroke:#ffffff;stroke-linejoin:miter;stroke-width:1.5;"/>
   </g>
   <g id="patch_30">
    <path clip-path="url(#pec2faab57f)" d="M 269.159451 215.35625 
L 275.048524 215.35625 
L 275.048524 197.627052 
L 269.159451 197.627052 
z
" style="fill:#4c72b0;stroke:#ffffff;stroke-linejoin:miter;stroke-width:1.5;"/>
   </g>
   <g id="patch_31">
    <path clip-path="url(#pec2faab57f)" d="M 275.048524 215.35625 
L 280.937596 215.35625 
L 280.937596 202.118979 
L 275.048524 202.118979 
z
" style="fill:#4c72b0;stroke:#ffffff;stroke-linejoin:miter;stroke-width:1.5;"/>
   </g>
   <g id="patch_32">
    <path clip-path="url(#pec2faab57f)" d="M 280.937596 215.35625 
L 286.826669 215.35625 
L 286.826669 198.541338 
L 280.937596 198.541338 
z
" style="fill:#4c72b0;stroke:#ffffff;stroke-linejoin:miter;stroke-width:1.5;"/>
   </g>
   <g id="patch_33">
    <path clip-path="url(#pec2faab57f)" d="M 286.826669 215.35625 
L 292.715741 215.35625 
L 292.715741 203.9078 
L 286.826669 203.9078 
z
" style="fill:#4c72b0;stroke:#ffffff;stroke-linejoin:miter;stroke-width:1.5;"/>
   </g>
   <g id="patch_34">
    <path clip-path="url(#pec2faab57f)" d="M 292.715741 215.35625 
L 298.604814 215.35625 
L 298.604814 208.161217 
L 292.715741 208.161217 
z
" style="fill:#4c72b0;stroke:#ffffff;stroke-linejoin:miter;stroke-width:1.5;"/>
   </g>
   <g id="patch_35">
    <path clip-path="url(#pec2faab57f)" d="M 298.604814 215.35625 
L 304.493886 215.35625 
L 304.493886 208.677987 
L 298.604814 208.677987 
z
" style="fill:#4c72b0;stroke:#ffffff;stroke-linejoin:miter;stroke-width:1.5;"/>
   </g>
   <g id="patch_36">
    <path clip-path="url(#pec2faab57f)" d="M 304.493886 215.35625 
L 310.382959 215.35625 
L 310.382959 210.506559 
L 304.493886 210.506559 
z
" style="fill:#4c72b0;stroke:#ffffff;stroke-linejoin:miter;stroke-width:1.5;"/>
   </g>
   <g id="patch_37">
    <path clip-path="url(#pec2faab57f)" d="M 310.382959 215.35625 
L 316.272031 215.35625 
L 316.272031 211.738858 
L 310.382959 211.738858 
z
" style="fill:#4c72b0;stroke:#ffffff;stroke-linejoin:miter;stroke-width:1.5;"/>
   </g>
   <g id="patch_38">
    <path clip-path="url(#pec2faab57f)" d="M 316.272031 215.35625 
L 322.161103 215.35625 
L 322.161103 213.249417 
L 316.272031 213.249417 
z
" style="fill:#4c72b0;stroke:#ffffff;stroke-linejoin:miter;stroke-width:1.5;"/>
   </g>
   <g id="patch_39">
    <path clip-path="url(#pec2faab57f)" d="M 322.161103 215.35625 
L 328.050176 215.35625 
L 328.050176 213.726436 
L 322.161103 213.726436 
z
" style="fill:#4c72b0;stroke:#ffffff;stroke-linejoin:miter;stroke-width:1.5;"/>
   </g>
   <g id="patch_40">
    <path clip-path="url(#pec2faab57f)" d="M 328.050176 215.35625 
L 333.939248 215.35625 
L 333.939248 213.805939 
L 328.050176 213.805939 
z
" style="fill:#4c72b0;stroke:#ffffff;stroke-linejoin:miter;stroke-width:1.5;"/>
   </g>
   <g id="patch_41">
    <path clip-path="url(#pec2faab57f)" d="M 333.939248 215.35625 
L 339.828321 215.35625 
L 339.828321 214.243206 
L 333.939248 214.243206 
z
" style="fill:#4c72b0;stroke:#ffffff;stroke-linejoin:miter;stroke-width:1.5;"/>
   </g>
   <g id="patch_42">
    <path clip-path="url(#pec2faab57f)" d="M 339.828321 215.35625 
L 345.717393 215.35625 
L 345.717393 214.402212 
L 339.828321 214.402212 
z
" style="fill:#4c72b0;stroke:#ffffff;stroke-linejoin:miter;stroke-width:1.5;"/>
   </g>
   <g id="patch_43">
    <path clip-path="url(#pec2faab57f)" d="M 345.717393 215.35625 
L 351.606466 215.35625 
L 351.606466 214.918983 
L 345.717393 214.918983 
z
" style="fill:#4c72b0;stroke:#ffffff;stroke-linejoin:miter;stroke-width:1.5;"/>
   </g>
   <g id="patch_44">
    <path clip-path="url(#pec2faab57f)" d="M 351.606466 215.35625 
L 357.495538 215.35625 
L 357.495538 214.958734 
L 351.606466 214.958734 
z
" style="fill:#4c72b0;stroke:#ffffff;stroke-linejoin:miter;stroke-width:1.5;"/>
   </g>
   <g id="patch_45">
    <path clip-path="url(#pec2faab57f)" d="M 357.495538 215.35625 
L 363.384611 215.35625 
L 363.384611 215.276747 
L 357.495538 215.276747 
z
" style="fill:#4c72b0;stroke:#ffffff;stroke-linejoin:miter;stroke-width:1.5;"/>
   </g>
   <g id="patch_46">
    <path clip-path="url(#pec2faab57f)" d="M 363.384611 215.35625 
L 369.273683 215.35625 
L 369.273683 215.157492 
L 363.384611 215.157492 
z
" style="fill:#4c72b0;stroke:#ffffff;stroke-linejoin:miter;stroke-width:1.5;"/>
   </g>
   <g id="patch_47">
    <path clip-path="url(#pec2faab57f)" d="M 369.273683 215.35625 
L 375.162756 215.35625 
L 375.162756 215.236995 
L 369.273683 215.236995 
z
" style="fill:#4c72b0;stroke:#ffffff;stroke-linejoin:miter;stroke-width:1.5;"/>
   </g>
   <g id="patch_48">
    <path clip-path="url(#pec2faab57f)" d="M 375.162756 215.35625 
L 381.051828 215.35625 
L 381.051828 215.236995 
L 375.162756 215.236995 
z
" style="fill:#4c72b0;stroke:#ffffff;stroke-linejoin:miter;stroke-width:1.5;"/>
   </g>
   <g id="patch_49">
    <path clip-path="url(#pec2faab57f)" d="M 381.051828 215.35625 
L 386.940901 215.35625 
L 386.940901 215.35625 
L 381.051828 215.35625 
z
" style="fill:#4c72b0;stroke:#ffffff;stroke-linejoin:miter;stroke-width:1.5;"/>
   </g>
   <g id="patch_50">
    <path clip-path="url(#pec2faab57f)" d="M 386.940901 215.35625 
L 392.829973 215.35625 
L 392.829973 215.316498 
L 386.940901 215.316498 
z
" style="fill:#4c72b0;stroke:#ffffff;stroke-linejoin:miter;stroke-width:1.5;"/>
   </g>
   <g id="patch_51">
    <path clip-path="url(#pec2faab57f)" d="M 392.829973 215.35625 
L 398.719045 215.35625 
L 398.719045 215.35625 
L 392.829973 215.35625 
z
" style="fill:#4c72b0;stroke:#ffffff;stroke-linejoin:miter;stroke-width:1.5;"/>
   </g>
   <g id="patch_52">
    <path clip-path="url(#pec2faab57f)" d="M 398.719045 215.35625 
L 404.608118 215.35625 
L 404.608118 215.316498 
L 398.719045 215.316498 
z
" style="fill:#4c72b0;stroke:#ffffff;stroke-linejoin:miter;stroke-width:1.5;"/>
   </g>
   <g id="patch_53">
    <path d="M 81.8 215.35625 
L 81.8 16.59843 
" style="fill:none;stroke:#262626;stroke-linecap:square;stroke-linejoin:miter;stroke-width:1.875;"/>
   </g>
   <g id="patch_54">
    <path d="M 91.8 225.35625 
L 409.825 225.35625 
" style="fill:none;stroke:#262626;stroke-linecap:square;stroke-linejoin:miter;stroke-width:1.875;"/>
   </g>
  </g>
 </g>
 <defs>
  <clipPath id="pec2faab57f">
   <rect height="201.266144" width="318.025" x="91.8" y="14.090106"/>
  </clipPath>
 </defs>
</svg>
